<?xml version="1.0" standalone="no"?>
<!DOCTYPE svg PUBLIC "-//W3C//DTD SVG 20010904//EN"
 "http://www.w3.org/TR/2001/REC-SVG-20010904/DTD/svg10.dtd">
<svg version="1.0" xmlns="http://www.w3.org/2000/svg"
 width="26px" height="26px" viewBox="0 0 500.000000 500.000000"
 preserveAspectRatio="xMidYMid meet">

<g transform="translate(0.000000,500.000000) scale(0.100000,-0.100000)"
fill="#fff" stroke="none">
<path d="M1967 2690 c-84 -25 -144 -116 -134 -202 13 -104 88 -169 197 -169
111 -1 190 65 198 165 6 71 -11 117 -58 160 -56 50 -131 67 -203 46z m116 -64
c48 -20 69 -50 75 -104 8 -89 -41 -142 -133 -142 -129 0 -171 181 -55 242 41
22 70 23 113 4z"/>
<path d="M2518 2690 c-87 -26 -138 -93 -138 -181 0 -128 106 -211 240 -187
115 21 180 125 150 238 -27 100 -147 162 -252 130z m121 -68 c37 -20 71 -73
71 -110 0 -36 -25 -87 -55 -110 -54 -43 -159 -22 -190 38 -61 119 58 244 174
182z"/>
<path d="M1380 2505 l0 -185 29 0 c29 0 30 2 33 53 l3 52 80 5 c91 7 125 23
149 75 21 43 20 72 -2 114 -28 55 -70 71 -189 71 l-103 0 0 -185z m219 99 c12
-15 21 -34 21 -44 0 -10 -9 -29 -21 -44 -19 -24 -27 -26 -90 -26 l-69 0 0 70
0 70 69 0 c63 0 71 -2 90 -26z"/>
<path d="M2930 2665 c0 -24 2 -25 65 -25 l65 0 0 -120 c0 -116 -1 -120 -25
-136 -26 -17 -58 -12 -88 15 -18 15 -20 14 -38 -8 -22 -27 -19 -35 23 -57 39
-20 107 -20 146 0 43 22 52 60 52 217 l0 139 -100 0 -100 0 0 -25z"/>
<path d="M3416 2638 c-13 -29 -51 -113 -84 -185 l-60 -133 36 0 c34 0 38 3 55
45 l19 45 93 0 93 0 18 -45 c15 -41 20 -45 50 -45 19 0 34 4 34 9 0 4 -36 86
-79 182 l-79 174 -36 3 c-35 3 -37 1 -60 -50z m118 -156 c7 -21 4 -22 -58 -22
-36 0 -66 4 -66 9 0 4 14 41 32 81 l32 73 27 -60 c15 -33 30 -69 33 -81z"/>
</g>
</svg>
